<svg width="190" height="179" viewBox="0 0 190 179" fill="none" xmlns="http://www.w3.org/2000/svg">
<rect width="190" height="179" rx="24" fill="#4A4E54"/>
<path d="M95 60C85.335 60 77.5 67.835 77.5 77.5V101.5C77.5 111.165 85.335 119 95 119C104.665 119 112.5 111.165 112.5 101.5V77.5C112.5 67.835 104.665 60 95 60Z" fill="#969696"/>
<path d="M60 135H130C138.284 135 145 128.284 145 120V90C145 81.716 138.284 75 130 75H60C51.716 75 45 81.716 45 90V120C45 128.284 51.716 135 60 135Z" fill="#696969" fill-opacity="0.5"/>
</svg>